<svg xmlns="http://www.w3.org/2000/svg" version="1.1" xmlns:xlink="http://www.w3.org/1999/xlink" width="512" height="512" x="0" y="0" viewBox="0 0 100 100" style="enable-background:new 0 0 512 512" xml:space="preserve" class=""><g><path d="M93.75 26H72.94a16.31 16.31 0 0 0-32.52 0H20.53l-3.67-11.9a1.26 1.26 0 0 0-1.2-.88H6.25a1.25 1.25 0 1 0 0 2.5h8.49l9.79 31.77 5.72 18.59-3.15.76a5.24 5.24 0 0 0 1.24 10.33h1.58a7.19 7.19 0 1 0 10.88 0h32.55a7.19 7.19 0 1 0 10.88 0h2.56a1.25 1.25 0 0 0 0-2.5H28.34a2.74 2.74 0 0 1-.65-5.4l4.38-1.06 51.29-7.55a1.25 1.25 0 0 0 1-.84l10.58-32.17A1.26 1.26 0 0 0 93.75 26zm-53.7 55.86a4.69 4.69 0 1 1-4.69-4.69 4.7 4.7 0 0 1 4.69 4.69zm43.43 0a4.69 4.69 0 1 1-4.69-4.69 4.7 4.7 0 0 1 4.69 4.69zm-26.8-68.42a13.83 13.83 0 1 1-13.82 13.82 13.84 13.84 0 0 1 13.82-13.82zM82.23 58.3l-49.51 7.28-5.8-18.83-5.62-18.24h19.12a16.31 16.31 0 0 0 32.52 0H92zm-33.93-31a1.25 1.25 0 0 1 1.25-1.3h5.88v-5.87a1.25 1.25 0 0 1 2.5 0V26h5.88a1.25 1.25 0 0 1 0 2.5h-5.88v5.9a1.25 1.25 0 0 1-2.5 0v-5.89h-5.88a1.25 1.25 0 0 1-1.25-1.25z" fill="#000000" opacity="1" data-original="#000000" class=""></path></g></svg>