<svg xmlns="http://www.w3.org/2000/svg" version="1.1" xmlns:xlink="http://www.w3.org/1999/xlink" width="512" height="512" x="0" y="0" viewBox="0 0 512 512" style="enable-background:new 0 0 512 512" xml:space="preserve" fill-rule="evenodd" class=""><g transform="matrix(0.9000000000000005,0,0,0.9000000000000005,25.599900722503634,25.60005142241701)"><path d="M255.999 374.282c-65.222 0-118.283-53.06-118.283-118.283 0-65.222 53.061-118.283 118.283-118.283 65.222 0 118.283 53.061 118.283 118.283 0 65.222-53.061 118.283-118.283 118.283zm0-223.577c-58.058 0-105.293 47.235-105.293 105.294 0 58.06 47.235 105.294 105.293 105.294 58.058 0 105.294-47.236 105.294-105.294s-47.236-105.294-105.294-105.294z" fill="#000000" opacity="1" data-original="#000000" class=""></path><path d="M280.751 511.792H231.25a6.496 6.496 0 0 1-6.391-5.342l-11.553-64.009a190.046 190.046 0 0 1-13.553-3.632l-42.007 49.658a6.496 6.496 0 0 1-8.206 1.43l-42.87-24.752a6.496 6.496 0 0 1-2.865-7.821l22.02-61.258a193.758 193.758 0 0 1-9.888-9.89l-61.264 22.018a6.496 6.496 0 0 1-7.821-2.865l-24.749-42.867a6.495 6.495 0 0 1 1.43-8.206l49.652-42.006a191.689 191.689 0 0 1-3.623-13.552L5.547 287.143a6.495 6.495 0 0 1-5.34-6.39V231.25a6.495 6.495 0 0 1 5.342-6.392l64.01-11.553a191.675 191.675 0 0 1 3.63-13.55L23.53 157.746a6.494 6.494 0 0 1-1.43-8.206l24.752-42.869a6.493 6.493 0 0 1 7.821-2.865l61.257 22.016a193.757 193.757 0 0 1 9.89-9.887l-22.017-61.26a6.495 6.495 0 0 1 2.864-7.822l42.868-24.749a6.492 6.492 0 0 1 8.205 1.43l42.006 49.652a191.384 191.384 0 0 1 13.553-3.627l11.554-64.01a6.494 6.494 0 0 1 6.392-5.341h49.501a6.494 6.494 0 0 1 6.391 5.34l11.554 64.01a190.497 190.497 0 0 1 13.552 3.629l42.008-49.656a6.498 6.498 0 0 1 8.207-1.43l42.868 24.752a6.495 6.495 0 0 1 2.864 7.821l-22.016 61.256a192.872 192.872 0 0 1 9.888 9.893l61.262-22.018a6.496 6.496 0 0 1 7.821 2.864l24.748 42.867a6.493 6.493 0 0 1-1.43 8.205l-49.648 42.005a191.102 191.102 0 0 1 3.624 13.556l64.01 11.554a6.494 6.494 0 0 1 5.342 6.391v49.502a6.493 6.493 0 0 1-5.342 6.39l-64.008 11.554a189.732 189.732 0 0 1-3.633 13.552l49.658 42.007a6.497 6.497 0 0 1 1.43 8.207l-24.752 42.87a6.495 6.495 0 0 1-7.82 2.863l-61.258-22.018a194.243 194.243 0 0 1-9.89 9.887l22.016 61.265a6.494 6.494 0 0 1-2.864 7.822l-42.867 24.747a6.493 6.493 0 0 1-8.206-1.43l-42.006-49.653a192.314 192.314 0 0 1-13.551 3.625l-11.555 64.014a6.498 6.498 0 0 1-6.393 5.342zm-44.073-12.99h38.647l11.362-62.948a6.494 6.494 0 0 1 5.093-5.211 177.687 177.687 0 0 0 20.573-5.503 6.497 6.497 0 0 1 7.012 1.968l41.304 48.822 33.467-19.32-21.65-60.242a6.498 6.498 0 0 1 1.8-7.054c5.3-4.705 10.36-9.762 15.038-15.033a6.503 6.503 0 0 1 7.056-1.802l60.233 21.652 19.324-33.469-48.83-41.305a6.5 6.5 0 0 1-1.967-7.012 177.474 177.474 0 0 0 5.511-20.57 6.494 6.494 0 0 1 5.21-5.097l62.943-11.36v-38.647L435.86 225.31a6.496 6.496 0 0 1-5.211-5.092 177.958 177.958 0 0 0-5.503-20.58 6.49 6.49 0 0 1 1.968-7.01l48.818-41.301-19.32-33.467-60.237 21.65a6.498 6.498 0 0 1-7.053-1.8 180.359 180.359 0 0 0-15.037-15.043 6.498 6.498 0 0 1-1.8-7.054l21.648-60.229-33.466-19.324-41.308 48.827a6.491 6.491 0 0 1-7.011 1.968 177.55 177.55 0 0 0-20.57-5.508 6.498 6.498 0 0 1-5.096-5.21l-11.36-62.944h-38.649l-11.361 62.946a6.493 6.493 0 0 1-5.095 5.21 177.172 177.172 0 0 0-20.572 5.506 6.501 6.501 0 0 1-7.01-1.968L151.33 36.063l-33.467 19.321 21.651 60.236a6.497 6.497 0 0 1-1.8 7.053 180.472 180.472 0 0 0-15.039 15.037 6.495 6.495 0 0 1-7.053 1.799L55.389 117.86l-19.324 33.47 48.829 41.31a6.498 6.498 0 0 1 1.968 7.012 177.064 177.064 0 0 0-5.508 20.566 6.496 6.496 0 0 1-5.211 5.096l-62.946 11.36v38.647l62.948 11.365a6.496 6.496 0 0 1 5.21 5.093 177.638 177.638 0 0 0 5.502 20.574 6.496 6.496 0 0 1-1.968 7.012l-48.822 41.303 19.32 33.467 60.24-21.65a6.502 6.502 0 0 1 7.054 1.8 180.134 180.134 0 0 0 15.034 15.04 6.498 6.498 0 0 1 1.8 7.055l-21.65 60.233 33.467 19.324 41.307-48.829a6.493 6.493 0 0 1 7.01-1.968 177.589 177.589 0 0 0 20.571 5.511 6.494 6.494 0 0 1 5.096 5.21l11.362 62.941z" fill="#000000" opacity="1" data-original="#000000" class=""></path></g></svg>