<svg xmlns="http://www.w3.org/2000/svg" version="1.1" xmlns:xlink="http://www.w3.org/1999/xlink" width="512" height="512" x="0" y="0" viewBox="0 0 64 64" style="enable-background:new 0 0 512 512" xml:space="preserve" class=""><g transform="matrix(0.9500000000000006,0,0,0.9500000000000006,1.59999999999998,1.6000001907348462)"><g data-name="1"><path d="m61.79 32.39-7-9A1 1 0 0 0 54 23h-9v-4a5 5 0 0 0-5-5H7a5 5 0 0 0-5 5v21a5 5 0 0 0 5 5 1 1 0 0 0 0-2 3 3 0 0 1-3-3v-4h39v7H22.91a6 6 0 1 0 0 2h23.18a6 6 0 0 0 11.82 0H61a1 1 0 0 0 1-1V33a1 1 0 0 0-.21-.61ZM4 34V19a3 3 0 0 1 3-3h33a3 3 0 0 1 3 3v15Zm13 14a4 4 0 1 1 4-4 4 4 0 0 1-4 4Zm35 0a4 4 0 1 1 4-4 4 4 0 0 1-4 4Zm8-5h-2.09a6 6 0 0 0-11.82 0H45V25h8.51L60 33.34Z" fill="#000000" opacity="1" data-original="#000000" class=""></path><path d="M52 27h-4a1 1 0 0 0-1 1v6a1 1 0 0 0 1 1h9a1 1 0 0 0 .77-1.64l-5-6A1 1 0 0 0 52 27Zm-3 6v-4h2.53l3.33 4Z" fill="#000000" opacity="1" data-original="#000000" class=""></path></g></g></svg>