<svg xmlns="http://www.w3.org/2000/svg" version="1.1" xmlns:xlink="http://www.w3.org/1999/xlink" width="512" height="512" x="0" y="0" viewBox="0 0 512 512" style="enable-background:new 0 0 512 512" xml:space="preserve" class=""><g transform="matrix(0.8500000000000003,0,0,0.8500000000000003,38.40003662109365,38.400034332275254)"><path d="M457.002 340.282v72.241c0 17.732-14.375 32.107-32.107 32.107H39.607c-17.732 0-32.107-14.375-32.107-32.107V187.772c0-17.732 14.375-32.107 32.107-32.107h385.288c17.732 0 32.107 14.375 32.107 32.107v120.402" style="stroke-width:15;stroke-linecap:round;stroke-linejoin:round;stroke-miterlimit:10;" fill="none" stroke="#000000" stroke-width="15" stroke-linecap="round" stroke-linejoin="round" stroke-miterlimit="10" data-original="#000000" class=""></path><path d="M38.972 123.557a31.997 31.997 0 0 1 21.005-11.401l382.701-44.567c17.613-2.051 33.555 10.564 35.606 28.178l25.998 223.242c2.051 17.613-10.564 33.555-28.178 35.606l-19.101 2.224M55.661 348.308h64.215M55.661 388.443h160.536M151.983 348.308h64.214M248.305 348.308h64.214M344.627 348.308h64.214M119.876 308.174H71.715c-8.866 0-16.054-7.187-16.054-16.054v-32.107c0-8.866 7.187-16.054 16.054-16.054h48.161c8.866 0 16.054 7.187 16.054 16.054v32.107c-.001 8.867-7.188 16.054-16.054 16.054zM87.768 276.067h16.054" style="stroke-width:15;stroke-linecap:round;stroke-linejoin:round;stroke-miterlimit:10;" fill="none" stroke="#000000" stroke-width="15" stroke-linecap="round" stroke-linejoin="round" stroke-miterlimit="10" data-original="#000000" class=""></path><path d="M384.253 284.094c5.414-10.882 8.535-23.121 8.535-36.121 0-13-3.121-25.24-8.535-36.121M355.467 269.599c3.257-6.525 5.214-13.823 5.214-21.626s-1.957-15.101-5.214-21.626M326.795 255.161c1.103-2.165 1.778-4.584 1.778-7.188 0-2.605-.675-5.023-1.778-7.188" style="stroke-width:15;stroke-linecap:round;stroke-linejoin:round;stroke-miterlimit:10;" fill="none" stroke="#000000" stroke-width="15" stroke-linecap="round" stroke-linejoin="round" stroke-miterlimit="10" data-original="#000000" class=""></path></g></svg>