<svg xmlns="http://www.w3.org/2000/svg" version="1.1" xmlns:xlink="http://www.w3.org/1999/xlink" width="512" height="512" x="0" y="0" viewBox="0 0 64 64" style="enable-background:new 0 0 512 512" xml:space="preserve" class=""><g transform="matrix(0.9500000000000003,0,0,0.9500000000000003,1.5999999999999908,1.5999999999999908)"><g data-name="11"><path d="M44 45H22a1 1 0 0 1 0-2h21V19a3 3 0 0 0-3-3H7a1 1 0 0 1 0-2h33a5 5 0 0 1 5 5v25a1 1 0 0 1-1 1z" fill="#000000" opacity="1" data-original="#000000" class=""></path><path d="M61 45h-4a1 1 0 0 1 0-2h3v-9.66L53.51 25H45v18h2a1 1 0 0 1 0 2h-3a1 1 0 0 1-1-1V24a1 1 0 0 1 1-1h10a1 1 0 0 1 .79.39l7 9A1 1 0 0 1 62 33v11a1 1 0 0 1-1 1zM17 50a6 6 0 1 1 6-6 6 6 0 0 1-6 6zm0-10a4 4 0 1 0 4 4 4 4 0 0 0-4-4z" fill="#000000" opacity="1" data-original="#000000" class=""></path><path d="M52 50a6 6 0 1 1 6-6 6 6 0 0 1-6 6zm0-10a4 4 0 1 0 4 4 4 4 0 0 0-4-4zM44 36H6a1 1 0 0 1 0-2h38a1 1 0 0 1 0 2zM57 35h-9a1 1 0 0 1-1-1v-6a1 1 0 0 1 1-1h4a1 1 0 0 1 .77.36l5 6A1 1 0 0 1 57 35zm-8-2h5.86l-3.33-4H49zM29 22H3a1 1 0 0 1 0-2h26a1 1 0 0 1 0 2zM21 29H11a1 1 0 0 1 0-2h10a1 1 0 0 1 0 2zM6 45H4a1 1 0 0 1 0-2h2a1 1 0 0 1 0 2z" fill="#000000" opacity="1" data-original="#000000" class=""></path></g></g></svg>