<svg xmlns="http://www.w3.org/2000/svg" version="1.1" xmlns:xlink="http://www.w3.org/1999/xlink" width="512" height="512" x="0" y="0" viewBox="0 0 512 512" style="enable-background:new 0 0 512 512" xml:space="preserve" class=""><g><path d="M296.438 461.655h56.352c28.451 0 54.225-15.711 67.26-41.007l2.819-5.464M464.75 398.85v-.01M464.76 398.85h-.01c-.24 1.57-.74 3.12-1.5 4.61l-16.06 31.18c-10.04 19.47-25.46 34.9-43.93 44.86M296.44 492.18h56.35c5.98 0 11.88-.49 17.65-1.46M92.245 125.244C61.26 166.76 47.371 218.381 52.835 269.35v.01M419.755 125.244c30.985 41.516 44.874 93.137 39.41 144.106v.01M66.664 328.274v-.01M98.496 411.772l-11.828 4.305c-16.188 5.892-34.086-2.462-39.974-18.64l-25.343-69.63c-5.892-16.188 2.448-34.092 18.637-39.984l11.828-4.305" style="stroke-width:15;stroke-linecap:round;stroke-linejoin:round;stroke-miterlimit:10;" fill="none" stroke="#000000" stroke-width="15" stroke-linecap="round" stroke-linejoin="round" stroke-miterlimit="10" data-original="#000000" class=""></path><path d="m140.32 281.29 33.39 91.75c8.05 22.13-3.36 46.6-25.49 54.65-22.12 8.06-46.59-3.35-54.65-25.48l-39.38-108.2c-8.05-22.13 3.36-46.6 25.49-54.65 4.81-1.75 9.74-2.58 14.58-2.58 11.66 0 22.84 4.82 30.84 13.2M460.185 283.518l11.828 4.305c16.188 5.892 24.529 23.795 18.637 39.984l-25.343 69.63c-5.889 16.179-23.786 24.532-39.974 18.64l-11.828-4.305" style="stroke-width:15;stroke-linecap:round;stroke-linejoin:round;stroke-miterlimit:10;" fill="none" stroke="#000000" stroke-width="15" stroke-linecap="round" stroke-linejoin="round" stroke-miterlimit="10" data-original="#000000" class=""></path><path d="M363.775 427.692h0c22.128 8.054 46.596-3.355 54.65-25.484l39.381-108.199c8.054-22.128-3.355-46.596-25.484-54.65h0c-22.128-8.054-46.596 3.355-54.65 25.484l-39.381 108.199c-8.053 22.128 3.356 46.596 25.484 54.65zM76.71 88c-7.38 8.29-7.31 20.97.48 28.88.05.05.1.11.16.16 4.24 4.25 9.43 6.99 14.89 8.2 9.87 2.21 20.6-.53 28.27-8.2 59.74-59.73 149.44-71.7 221.18-35.9M371.29 99.47c7.04 5.3 13.79 11.16 20.2 17.57 5.95 5.96 13.76 8.94 21.58 8.94 2.25 0 4.49-.24 6.69-.74a30.224 30.224 0 0 0 14.89-8.2c.06-.05.11-.11.16-.16 7.79-7.91 7.86-20.59.48-28.88" style="stroke-width:15;stroke-linecap:round;stroke-linejoin:round;stroke-miterlimit:10;" fill="none" stroke="#000000" stroke-width="15" stroke-linecap="round" stroke-linejoin="round" stroke-miterlimit="10" data-original="#000000" class=""></path><circle cx="273.463" cy="476.918" r="27.581" style="stroke-width:15;stroke-linecap:round;stroke-linejoin:round;stroke-miterlimit:10;" fill="none" stroke="#000000" stroke-width="15" stroke-linecap="round" stroke-linejoin="round" stroke-miterlimit="10" data-original="#000000" class=""></circle><path d="M22.644 303.415c-17.197-71.788-.326-147.851 45.851-205.678a240.089 240.089 0 0 1 17.848-19.954C131.655 32.461 191.914 7.5 256 7.5s124.345 24.961 169.657 70.283a240.089 240.089 0 0 1 17.848 19.954c46.177 57.828 63.048 133.89 45.851 205.678" style="stroke-width:15;stroke-linecap:round;stroke-linejoin:round;stroke-miterlimit:10;" fill="none" stroke="#000000" stroke-width="15" stroke-linecap="round" stroke-linejoin="round" stroke-miterlimit="10" data-original="#000000" class=""></path></g></svg>