<svg xmlns="http://www.w3.org/2000/svg" version="1.1" xmlns:xlink="http://www.w3.org/1999/xlink" width="512" height="512" x="0" y="0" viewBox="0 0 512 512" style="enable-background:new 0 0 512 512" xml:space="preserve" class=""><g transform="matrix(0.9499999999999997,0,0,0.9499999999999997,12.800000000000068,12.800000000000068)"><path d="M236 212h120M156 212h0M236 292h120M156 292h0M236 372h120M156 372h0M316 60c0 22.091-17.909 40-40 40h-40c-22.091 0-40-17.909-40-40v0c0-22.091 17.909-40 40-40h40c22.091 0 40 17.909 40 40h0z" style="stroke-width: 15; stroke-linecap: round; stroke-linejoin: round; stroke-miterlimit: 10;" fill="none" stroke="#000000" stroke-width="15" stroke-linecap="round" stroke-linejoin="round" stroke-miterlimit="10" data-original="#000000" class=""></path><path d="M196 60h-80c-22.091 0-40 17.909-40 40v352c0 22.091 17.909 40 40 40h280c22.091 0 40-17.909 40-40V100c0-22.091-17.909-40-40-40" style="stroke-width: 15; stroke-linecap: round; stroke-linejoin: round; stroke-miterlimit: 10;" fill="none" stroke="#000000" stroke-width="15" stroke-linecap="round" stroke-linejoin="round" stroke-miterlimit="10" data-original="#000000" class=""></path></g></svg>