<svg xmlns="http://www.w3.org/2000/svg" version="1.1" xmlns:xlink="http://www.w3.org/1999/xlink" width="512" height="512" x="0" y="0" viewBox="0 0 512 512" style="enable-background:new 0 0 512 512" xml:space="preserve" class=""><g transform="matrix(0.9500000000000003,0,0,0.9500000000000003,12.799999999999926,12.799999999999926)"><path d="M7.5 440.371h497M23.532 440.371V167.823h464.936v272.548M396.063 103.694h36.291a8.016 8.016 0 0 1 8.016 8.016v56.113M71.629 167.823V111.71a8.016 8.016 0 0 1 8.016-8.016h19.568M318.541 78.222s-11.507-9.673-25.077-5.585c-12.46 3.753-14.203 18.121-5.188 23.998 0 0 8.845 3.946 18.656 7.565 23.617 8.711 13.443 31.559-5.569 31.559-9.521 0-17.511-4.169-22.348-9.506M344.308 71.629h35.416M361.945 73.677v62.081M130.859 71.629v64.129M167.167 89.726c0 9.995-8.457 18.097-18.452 18.097-4.957 0-17.732.08-17.732.08s-.08-13.139-.08-18.177c0-4.138-.044-18.097-.044-18.097h17.856c9.995 0 18.452 8.102 18.452 18.097z" style="stroke-width:15;stroke-linecap:round;stroke-linejoin:round;stroke-miterlimit:10;" fill="none" stroke="#000000" stroke-width="15" stroke-linecap="round" stroke-linejoin="round" stroke-miterlimit="10" data-original="#000000" class=""></path><circle cx="222.414" cy="103.694" r="32.065" style="stroke-width:15;stroke-linecap:round;stroke-linejoin:round;stroke-miterlimit:10;" fill="none" stroke="#000000" stroke-width="15" stroke-linecap="round" stroke-linejoin="round" stroke-miterlimit="10" data-original="#000000" class=""></circle><path d="M440.371 376.242v64.129M328.145 440.371V231.952h112.226v112.225M95.677 231.952H71.629v160.322M296.081 392.274V231.952H127.742M360.21 328.145v16.032M71.629 360.21h224.452M183.855 231.952V360.21M23.532 392.274h304.613M440.371 392.274h48.097" style="stroke-width:15;stroke-linecap:round;stroke-linejoin:round;stroke-miterlimit:10;" fill="none" stroke="#000000" stroke-width="15" stroke-linecap="round" stroke-linejoin="round" stroke-miterlimit="10" data-original="#000000" class=""></path></g></svg>