<svg xmlns="http://www.w3.org/2000/svg" version="1.1" xmlns:xlink="http://www.w3.org/1999/xlink" width="512" height="512" x="0" y="0" viewBox="0 0 64 64" style="enable-background:new 0 0 512 512" xml:space="preserve" class=""><g transform="matrix(1.05,0,0,1.05,-1.58795023560522,-1.5999944448471162)"><path d="M53.645 12.49H34.481a1 1 0 1 0 0 2h19.164a5.882 5.882 0 0 1 5.875 5.875v24.59a5.882 5.882 0 0 1-5.875 5.875h-4.29c-.266 0-.52.106-.708.293l-7.093 7.087v-6.38a1 1 0 0 0-1-1H21.042a5.882 5.882 0 0 1-5.875-5.875V30.407a1 1 0 1 0-2 0v14.548c0 4.343 3.533 7.875 7.875 7.875h18.512v7.793a1 1 0 0 0 1.707.707l8.508-8.5h3.876c4.342 0 7.875-3.532 7.875-7.875v-24.59c0-4.343-3.533-7.875-7.875-7.875z" fill="#000000" opacity="1" data-original="#000000" class=""></path><path d="M50.045 23.145H27.983a1 1 0 1 0 0 2h22.062a1 1 0 1 0 0-2zM50.045 31.361H24.643a1 1 0 1 0 0 2h25.402a1 1 0 1 0 0-2zM50.045 39.578H24.643a1 1 0 1 0 0 2h25.402a1 1 0 1 0 0-2z" fill="#000000" opacity="1" data-original="#000000" class=""></path><path d="m16.343 26.134 5.606 2.95c.88.462 1.922.39 2.724-.19a2.58 2.58 0 0 0 1.036-2.539l-1.073-6.25a.58.58 0 0 1 .168-.52l4.541-4.426c.432-.42.697-.956.768-1.55v-.007a2.576 2.576 0 0 0-2.197-2.856l-6.285-.92a.586.586 0 0 1-.44-.321l-2.803-5.68a2.575 2.575 0 0 0-2.323-1.448c-.992 0-1.882.555-2.323 1.447L10.94 9.5a.594.594 0 0 1-.445.327l-6.28.918c-.98.14-1.78.815-2.087 1.757a2.57 2.57 0 0 0 .654 2.655l4.542 4.429a.58.58 0 0 1 .169.52L6.42 26.358a2.58 2.58 0 0 0 1.037 2.536 2.572 2.572 0 0 0 2.723.19l5.608-2.95c.171-.09.383-.09.555 0zm-7.095 1.18a.576.576 0 0 1-.62-.04.58.58 0 0 1-.236-.58l1.072-6.249a2.587 2.587 0 0 0-.742-2.29l-4.542-4.43a.574.574 0 0 1-.15-.604.569.569 0 0 1 .473-.396l6.28-.918a2.596 2.596 0 0 0 1.95-1.417l2.803-5.681c.148-.3.42-.332.529-.332.11 0 .382.032.53.332l2.805 5.685a2.59 2.59 0 0 0 1.945 1.412l6.285.92c.385.054.522.412.496.65a.557.557 0 0 1-.176.35l-4.543 4.43a2.587 2.587 0 0 0-.741 2.288l1.071 6.246a.58.58 0 0 1-.236.583.576.576 0 0 1-.62.041l-5.606-2.95a2.599 2.599 0 0 0-2.42 0z" fill="#000000" opacity="1" data-original="#000000" class=""></path></g></svg>