<svg xmlns="http://www.w3.org/2000/svg" version="1.1" xmlns:xlink="http://www.w3.org/1999/xlink" width="512" height="512" x="0" y="0" viewBox="0 0 512 512" style="enable-background:new 0 0 512 512" xml:space="preserve" class=""><g transform="matrix(0.9000000000000001,0,0,0.9000000000000001,25.59999980926503,25.599951934814385)"><path d="M126.656 191.488v-73.113c0-10.538 8.55-19.079 19.089-19.079H345.13M126.656 362.74v-40.824M126.656 294.946v-41.204M446.425 321.806V185.699M403.696 432.44l17.593-3.871a38.568 38.568 0 0 0 26.66-19.875l37.85-71.915c4.904-9.317 1.911-20.836-6.908-26.587h0c-9.048-5.901-21.127-3.725-27.548 4.961l-47.093 63.714-114.286-13.771 49.883-37.048c8.348-6.2 10.219-17.93 4.214-26.419v0a19.14 19.14 0 0 0-23.602-6.346l-78.694 36.073s-33.143-.858-69.558 30.297l-115.642 2.754M56.565 483.189l106.308-24.87h123.216l83.384-18.349" style="stroke-width:15;stroke-linecap:round;stroke-linejoin:round;stroke-miterlimit:10;" fill="none" stroke="#000000" stroke-width="15" stroke-linecap="round" stroke-linejoin="round" stroke-miterlimit="10" data-original="#000000" class=""></path><path d="M255.352 99.292h62.381v104.904h-62.381z" style="stroke-width:15;stroke-linecap:round;stroke-linejoin:round;stroke-miterlimit:10;" fill="none" stroke="#000000" stroke-width="15" stroke-linecap="round" stroke-linejoin="round" stroke-miterlimit="10" data-original="#000000" class=""></path><circle cx="424.535" cy="108.775" r="79.965" style="stroke-width:15;stroke-linecap:round;stroke-linejoin:round;stroke-miterlimit:10;" fill="none" stroke="#000000" stroke-width="15" stroke-linecap="round" stroke-linejoin="round" stroke-miterlimit="10" data-original="#000000" class=""></circle><path d="m289.964 365.095-20.313 16.372M156.565 321.915H20.985c-7.448 0-13.485-6.037-13.485-13.485s6.037-13.485 13.485-13.485h135.581c7.448 0 13.485 6.037 13.485 13.485s-6.038 13.485-13.486 13.485zM202.945 253.743H95.518c-7.448 0-13.485-6.037-13.485-13.485 0-7.448 6.037-13.485 13.485-13.485h107.428c7.448 0 13.485 6.037 13.485 13.485-.001 7.448-6.038 13.485-13.486 13.485zM82.033 185.571H20.985c-7.448 0-13.485-6.037-13.485-13.485s6.037-13.485 13.485-13.485h61.048c7.448 0 13.485 6.037 13.485 13.485s-6.038 13.485-13.485 13.485zM381.605 110.321l31.162 31.162 54.699-54.699" style="stroke-width:15;stroke-linecap:round;stroke-linejoin:round;stroke-miterlimit:10;" fill="none" stroke="#000000" stroke-width="15" stroke-linecap="round" stroke-linejoin="round" stroke-miterlimit="10" data-original="#000000" class=""></path></g></svg>