<svg xmlns="http://www.w3.org/2000/svg" version="1.1" xmlns:xlink="http://www.w3.org/1999/xlink" width="512" height="512" x="0" y="0" viewBox="0 0 100 100" style="enable-background:new 0 0 512 512" xml:space="preserve" class=""><g transform="matrix(1.0799999999999992,0,0,1.0799999999999992,-4.000095977783133,-4.001464309692331)"><path d="M6.26 14.59h8.49l3.66 11.91 11.85 38.44-3.15.76A5.24 5.24 0 0 0 28.35 76h1.57a7.2 7.2 0 1 0 10.88 0h32.54a7.2 7.2 0 1 0 10.88 0h2.57a1.25 1.25 0 0 0 0-2.5H28.35a2.74 2.74 0 0 1-.65-5.4l4.38-1.07 51.28-7.54a1.24 1.24 0 0 0 1-.84l10.57-32.13a1.25 1.25 0 0 0-1.19-1.64H20.53L16.86 13a1.25 1.25 0 0 0-1.19-.88H6.26a1.25 1.25 0 0 0 0 2.5zm33.8 66.13a4.7 4.7 0 1 1-4.7-4.72 4.7 4.7 0 0 1 4.7 4.72zm43.42 0a4.7 4.7 0 1 1-4.7-4.72 4.7 4.7 0 0 1 4.7 4.72zM92 27.38l-9.77 29.78-49.51 7.28-5.8-18.82-5.62-18.24z" fill="#000000" opacity="1" data-original="#000000" class=""></path></g></svg>