<svg xmlns="http://www.w3.org/2000/svg" version="1.1" xmlns:xlink="http://www.w3.org/1999/xlink" width="512" height="512" x="0" y="0" viewBox="0 0 64 64" style="enable-background:new 0 0 512 512" xml:space="preserve" class=""><g><path d="M32 59c-.17 0-.34-.04-.5-.13C14.31 49.05 3.03 35.42 2.06 23.28c-.46-5.86 1.6-10.82 5.97-14.33C11.34 6.29 14.59 5 17.99 5c8.4 0 14.54 8.06 14.8 8.4.33.44.24 1.07-.2 1.4s-1.07.24-1.4-.2c-.06-.08-5.81-7.6-13.2-7.6-2.96 0-5.73 1.11-8.7 3.51-3.83 3.08-5.64 7.44-5.23 12.62C4.95 34.32 15.9 47.51 32 56.85c16.11-9.33 27.05-22.53 27.94-33.72.41-5.17-1.4-9.54-5.23-12.62C51.73 8.12 48.96 7 46 7c-4.27 0-7.98 2.5-10.34 4.59a.998.998 0 1 1-1.33-1.49C36.95 7.78 41.1 5 45.99 5c3.4 0 6.65 1.29 9.96 3.95 4.37 3.52 6.44 8.47 5.97 14.34-.96 12.13-12.24 25.77-29.44 35.58-.15.09-.32.13-.5.13z" fill="#000000" opacity="1" data-original="#000000" class=""></path></g></svg>
