<svg xmlns="http://www.w3.org/2000/svg" version="1.1" xmlns:xlink="http://www.w3.org/1999/xlink" width="512" height="512" x="0" y="0" viewBox="0 0 55 55" style="enable-background:new 0 0 512 512" xml:space="preserve" class=""><g><path d="M39.63 52.87H15.06a3.14 3.14 0 0 1-3.14-2.95l-2.2-36.47a.77.77 0 0 1 .21-.56.75.75 0 0 1 .54-.24h33.74a.75.75 0 0 1 .75.8l-2.19 36.47a3.14 3.14 0 0 1-3.14 2.95zM11.27 14.15l2.15 35.68a1.64 1.64 0 0 0 1.64 1.54h24.57a1.64 1.64 0 0 0 1.64-1.54l2.15-35.68z" fill="#000000" opacity="1" data-original="#000000" class=""></path><path d="M10.16 14.15a2.62 2.62 0 0 1-2.38-2.49 4.17 4.17 0 0 1 .47-2.61 2.69 2.69 0 0 1 2-1.43l33.57-4.4a2.75 2.75 0 0 1 2.3.86 4.3 4.3 0 0 1 1.12 2.41 3.16 3.16 0 0 1-.35 2 2.14 2.14 0 0 1-1.56 1.11l-34.9 4.57zm34-9.45H44L10.44 9.1a1.28 1.28 0 0 0-.89.69 2.7 2.7 0 0 0-.28 1.67c.1.76.56 1.23 1 1.19l34.9-4.58a.68.68 0 0 0 .45-.36 1.66 1.66 0 0 0 .17-1A2.82 2.82 0 0 0 45 5.13a1.35 1.35 0 0 0-.87-.43z" fill="#000000" opacity="1" data-original="#000000" class=""></path><path d="M21.32 7.66a.69.69 0 0 1-.45-.16.76.76 0 0 1-.29-.5 3.59 3.59 0 0 1 3.09-4L30 2.16a3.58 3.58 0 0 1 4 3.09.74.74 0 0 1-.14.56.77.77 0 0 1-.5.28L21.42 7.65zm8.83-4-6.28.83a2.08 2.08 0 0 0-1.76 1.58l10.15-1.35a2.09 2.09 0 0 0-2.11-1.08zM20 46.13a.74.74 0 0 1-.74-.66l-3-25.34a.75.75 0 1 1 1.49-.13l3 25.33a.76.76 0 0 1-.66.84zM27.34 46.13a.76.76 0 0 1-.75-.75V20.05a.75.75 0 0 1 1.5 0v25.33a.75.75 0 0 1-.75.75zM34.72 46.13h-.08a.76.76 0 0 1-.66-.84l3-25.33a.75.75 0 1 1 1.49.17l-3 25.34a.76.76 0 0 1-.75.66z" fill="#000000" opacity="1" data-original="#000000" class=""></path></g></svg>