<svg xmlns="http://www.w3.org/2000/svg" version="1.1" xmlns:xlink="http://www.w3.org/1999/xlink" width="512" height="512" x="0" y="0" viewBox="0 0 64 64" style="enable-background:new 0 0 512 512" xml:space="preserve" class=""><g transform="matrix(1.0799999999999983,0,0,1.0799999999999983,-2.559999923706009,-2.560000114440868)"><path d="M42.283 27.17a.998.998 0 0 0-.858.225 14.39 14.39 0 0 1-18.85 0 .996.996 0 0 0-.858-.224A13.055 13.055 0 0 0 11.36 39.91V54.09a1 1 0 0 0 .4.8C12.04 55.099 18.73 60 32 60s19.96-4.901 20.24-5.11a1 1 0 0 0 .4-.8V39.91a13.055 13.055 0 0 0-10.357-12.74Zm8.357 26.388C49.063 54.556 42.837 58 32 58c-10.791 0-17.057-3.45-18.64-4.444V39.91a11.053 11.053 0 0 1 8.298-10.674 16.391 16.391 0 0 0 20.684 0A11.053 11.053 0 0 1 50.64 39.91Z" fill="#000000" opacity="1" data-original="#000000" class=""></path><path d="M32 28.91a12.455 12.455 0 1 0-12.454-12.455A12.468 12.468 0 0 0 32 28.909ZM32 6a10.455 10.455 0 1 1-10.454 10.455A10.466 10.466 0 0 1 32 6Z" fill="#000000" opacity="1" data-original="#000000" class=""></path></g></svg>