<svg xmlns="http://www.w3.org/2000/svg" version="1.1" xmlns:xlink="http://www.w3.org/1999/xlink" width="512" height="512" x="0" y="0" viewBox="0 0 512 512" style="enable-background:new 0 0 512 512" xml:space="preserve" class=""><g transform="matrix(0.8500000000000003,0,0,0.8500000000000003,38.4000002861022,38.400033903121766)"><path d="m179.719 151.736-38.726 42.2M352.867 194.803l20.88-22.753c6.34-6.909 5.879-17.65-1.03-23.99l-90.428-82.983c-6.909-6.34-17.65-5.879-23.99 1.03l-58.922 64.208M123.213 152.052H59.337c-22.767 0-41.223 18.456-41.223 41.223v9.299" style="stroke-width: 15; stroke-linecap: round; stroke-linejoin: round; stroke-miterlimit: 10;" fill="none" stroke="#000000" stroke-width="15" stroke-linecap="round" stroke-linejoin="round" stroke-miterlimit="10" data-original="#000000" class=""></path><path d="M427.257 170.684c6.715-12.349 4.461-28.131-6.364-38.065L293.544 15.754c-12.759-11.709-32.594-10.857-44.303 1.902L86.467 195.032M339.638 504.5h72.344c22.767 0 41.223-18.456 41.223-41.223v-66.405M453.206 304.957v-67.188c0-22.767-18.456-41.223-41.223-41.223H18.114v266.731c0 22.767 18.456 41.223 41.223 41.223h244.729" style="stroke-width: 15; stroke-linecap: round; stroke-linejoin: round; stroke-miterlimit: 10;" fill="none" stroke="#000000" stroke-width="15" stroke-linecap="round" stroke-linejoin="round" stroke-miterlimit="10" data-original="#000000" class=""></path><path d="M416.425 366.815h0c-8.998 0-16.292-7.294-16.292-16.292v0c0-8.998 7.294-16.292 16.292-16.292h0c8.998 0 16.292 7.294 16.292 16.292v0c-.001 8.998-7.295 16.292-16.292 16.292z" style="stroke-width: 15; stroke-linecap: round; stroke-linejoin: round; stroke-miterlimit: 10;" fill="none" stroke="#000000" stroke-width="15" stroke-linecap="round" stroke-linejoin="round" stroke-miterlimit="10" data-original="#000000" class=""></path><path d="M471.025 395.017H416.04c-24.573 0-44.494-19.92-44.494-44.494v0c0-24.573 19.92-44.494 44.494-44.494h54.985c12.626 0 22.861 10.235 22.861 22.861v43.266c0 12.626-10.235 22.861-22.861 22.861z" style="stroke-width: 15; stroke-linecap: round; stroke-linejoin: round; stroke-miterlimit: 10;" fill="none" stroke="#000000" stroke-width="15" stroke-linecap="round" stroke-linejoin="round" stroke-miterlimit="10" data-original="#000000" class=""></path></g></svg>