<?xml version="1.0" encoding="UTF-8"?>
<!-- Created with Inkscape (http://www.inkscape.org/) -->
<svg width="1254.4" height="341.38" version="1.1" viewBox="0 0 1254.4 341.38" xmlns="http://www.w3.org/2000/svg">
 <defs>
  <clipPath id="clip16">
   <path d="m80 655.98h22v25.664h-22z"/>
  </clipPath>
  <clipPath id="clip17">
   <path d="m172 675h2.4688v6h-2.4688z"/>
  </clipPath>
 </defs>
 <g transform="translate(5.0336e-5 .00025199)">
  <g transform="matrix(13.333 0 0 13.333 -1071.8 -8746.4)" clip-path="url(#clip16)">
   <path d="m94.574 660.07c0.89844-1.0859 1.5-2.5898 1.332-4.0898-1.2852 0.0469-2.8477 0.85937-3.7695 1.9375-0.82812 0.96094-1.5547 2.4961-1.3594 3.9609 1.4375 0.11328 2.9062-0.73047 3.7969-1.8086m6.6602 14.691c-0.0312 0.0898-0.53516 1.8398-1.7695 3.6406-1.0703 1.5625-2.1758 3.1172-3.9219 3.1484-1.7148 0.0312-2.2656-1.0156-4.2227-1.0156-1.9648 0-2.5781 0.98437-4.1992 1.0469-1.6836 0.0625-2.9648-1.6875-4.043-3.2383-2.1992-3.1797-3.875-8.9883-1.6211-12.902 1.1172-1.9453 3.125-3.1797 5.2969-3.2109 1.6562-0.0273 3.2148 1.1133 4.2266 1.1133s2.9062-1.375 4.9023-1.1719c0.83203 0.0352 3.1758 0.33594 4.6836 2.5391-0.1211 0.0742-2.7969 1.6328-2.7695 4.8711 0.03516 3.875 3.3984 5.1641 3.4375 5.1797"/>
  </g>
  <path d="m458.07 148.02-7.1355-22.136c-0.781-2.2916-2.1875-7.6041-4.2708-15.99h-0.26c-0.833 3.5938-2.1875 8.9062-4.0104 15.99l-7.0313 22.136zm24.844 35.26h-14.479l-7.9167-24.792h-27.552l-7.5521 24.792h-14.062l27.292-84.688h16.823z"/>
  <path d="m541.51 183.28h-11.927l-0.781-9.2708h-0.26c-4.2708 7.0833-10.729 10.625-19.323 10.625-6.0417 0-10.885-1.8749-14.479-5.6249-4.2708-4.6355-6.4062-11.563-6.4062-20.886v-35.938h13.49v33.698c0 11.771 4.0625 17.604 12.135 17.604 6.0417 0 10.26-2.9167 12.656-8.8022 0.573-1.5104 0.885-3.2292 0.885-5.1562v-37.344h13.49v43.49c0 5.7812 0.156 11.667 0.521 17.604"/>
  <path d="m589.01 132.34h-14.948v29.688c0 7.5521 2.6562 11.302 7.9166 11.302 2.3958 0 4.4271-0.208 5.9896-0.573l0.416 10.208c-2.7084 0.989-6.198 1.5106-10.573 1.5106-5.3647 0-9.5313-1.6147-12.552-4.8959-3.0208-3.2813-4.5312-8.75-4.5312-16.458v-30.781h-8.9584v-10.156h8.9584v-11.146l13.333-4.0104v15.156h14.948z"/>
  <path d="m654.63 183.28h-13.49v-34.688c0-10.99-4.1147-16.458-12.396-16.458-6.3021 0-10.625 3.1772-12.969 9.5313-0.416 1.3542-0.625 2.9687-0.625 4.8959v36.719h-13.542v-89.115h13.542v36.719h0.26c4.2708-6.5624 10.364-9.8437 18.333-9.8437 5.625 0 10.26 1.8229 13.958 5.5209 4.6355 4.5833 6.9271 11.406 6.9271 20.469z"/>
  <path d="m711.72 152.6c0-5.5729-1.1973-10.364-3.5937-14.375-2.8646-4.8439-6.9271-7.2396-12.24-7.2396-5.4167 0-9.5834 2.3957-12.448 7.2396-2.3959 4.0104-3.5937 8.9061-3.5937 14.635 0 5.5729 1.1973 10.417 3.5937 14.375 2.9688 4.8437 7.0833 7.2916 12.344 7.2916 5.2084 0 9.2708-2.4479 12.188-7.3959 2.5-4.0624 3.75-8.9061 3.75-14.531m14.115-0.364c0 9.3749-2.7084 17.083-8.073 23.125-5.625 6.198-13.073 9.2708-22.344 9.2708-8.9584 0-16.094-2.9686-21.458-8.9061-5.3124-5.9376-7.9687-13.438-7.9687-22.448 0-9.4792 2.7604-17.188 8.2291-23.229 5.5209-6.0416 12.917-9.0104 22.188-9.0104 8.9583 0 16.146 2.9688 21.614 8.9063 5.2084 5.7292 7.8126 13.229 7.8126 22.292"/>
  <path d="m769.58 134.17c-1.3542-0.208-2.8126-0.312-4.323-0.312-4.7917 0-8.4896 1.7708-11.094 5.4167-2.2917 3.1251-3.4375 7.1875-3.4375 12.031v31.979h-13.49v-41.823c0-7.0834-0.107-13.49-0.364-19.271h11.823l0.521 11.719h0.364c1.4063-4.0104 3.6979-7.2396 6.7708-9.6355 3.0208-2.1875 6.3021-3.2292 9.8437-3.2292 1.2494 0 2.3438 0.05 3.3855 0.208z"/>
  <path d="m794.63 183.28h-13.49v-61.094h13.49zm1.5105-79.375c0 2.4479-0.781 4.375-2.3439 5.9375-1.6145 1.4583-3.6457 2.2396-6.1457 2.2396-2.2917 0-4.1667-0.781-5.7292-2.3437-1.5625-1.5104-2.2917-3.4896-2.2917-5.8334 0-2.3437 0.781-4.2709 2.3438-5.7813 1.6146-1.5104 3.5938-2.2396 5.8854-2.2396 2.3437 0 4.3229 0.729 5.9374 2.2396 1.5626 1.5104 2.3439 3.4376 2.3439 5.7813"/>
  <path d="m856.61 183.28h-49.792v-7.9687l24.375-32.188c1.5104-2.0312 4.2708-5.3124 8.2813-9.9479h-30.261v-10.99h46.719v8.4896l-23.854 31.667c-2.7084 3.4375-5.4688 6.7708-8.2814 10h32.813z"/>
  <path d="m905.42 146.35c0.05-4.0104-0.833-7.5-2.6563-10.417-2.3437-3.8021-5.9896-5.677-10.833-5.677-4.4792 0-8.0729 1.8229-10.833 5.5208-2.2918 2.9166-3.6459 6.4584-4.0626 10.573zm12.969 3.4896c0 2.4479-0.156 4.4792-0.521 6.1979h-40.833c0.156 5.9896 2.1355 10.625 5.9375 13.802 3.4376 2.8645 7.8646 4.2708 13.333 4.2708 6.0417 0 11.562-0.937 16.51-2.8645l2.1354 9.427c-5.7812 2.5522-12.604 3.8022-20.469 3.8022-9.4792 0-16.927-2.8126-22.344-8.3855-5.3645-5.5729-8.0728-13.021-8.0728-22.448 0-9.2188 2.5-16.875 7.552-22.969 5.2604-6.5625 12.396-9.8437 21.354-9.8437 8.8021 0 15.469 3.2812 20 9.8437 3.5938 5.1563 5.4166 11.563 5.4166 19.167"/>
  <path d="m972.5 157.55v-10.156c0-1.7188-0.107-3.125-0.364-4.2188-0.729-3.2812-2.3957-5.9896-4.8957-8.2292-2.5-2.1874-5.5209-3.2812-9.0625-3.2812-5 0-8.9584 1.9792-11.875 5.9896-2.8645 4.0104-4.3228 9.1146-4.3228 15.365 0 6.0417 1.4061 10.885 4.1667 14.635 2.9166 4.0104 6.8228 6.0416 11.771 6.0416 4.4792 0 8.0208-1.6666 10.729-5 2.552-3.1249 3.8541-6.8229 3.8541-11.146m14.114 25.729h-12.083l-0.625-9.7916h-0.364c-3.8542 7.4478-10.365 11.146-19.583 11.146-7.3957 0-13.49-2.8645-18.385-8.6457-4.8437-5.7814-7.2396-13.281-7.2396-22.448 0-9.8958 2.6563-17.865 7.9167-24.01 5.1562-5.6771 11.458-8.4896 18.958-8.4896 8.2814 0 14.01 2.7084 17.292 8.2292v-35.104h13.542v72.656c0 5.9375 0.156 11.458 0.573 16.458"/>
  <path d="m466.2 304.01c0 7.1874-2.5 13.073-7.552 17.552-5.5209 4.9479-13.229 7.3957-23.125 7.3957-9.1145 0-16.458-1.7186-21.979-5.2082l3.1251-11.25c5.9896 3.4374 12.5 5.1562 19.636 5.1562 5.1041 0 9.1145-1.1453 11.927-3.4376 2.8646-2.2916 4.323-5.3645 4.323-9.2186 0-3.4375-1.1974-6.3022-3.5418-8.6459-2.3437-2.3437-6.25-4.5312-11.719-6.5104-14.844-5.5208-22.239-13.594-22.239-24.219 0-6.9271 2.6041-12.604 7.8645-17.083 5.2604-4.4271 12.136-6.6146 20.781-6.6146 7.7084 0 14.115 1.3027 19.219 4.0104l-3.3855 10.99c-4.7916-2.6041-10.208-3.9062-16.198-3.9062-4.7918 0-8.5418 1.1973-11.198 3.5417-2.2917 2.0833-3.3855 4.6353-3.3855 7.6561 0 3.3334 1.2494 6.0939 3.8542 8.2814 2.2917 2.0312 6.4062 4.1666 12.344 6.5104 7.2917 2.9688 12.656 6.3541 16.094 10.312 3.4376 3.9583 5.1563 8.8541 5.1563 14.688"/>
  <path d="m517.97 290.89c0.107-4.0624-0.781-7.552-2.6562-10.469-2.3438-3.75-5.9376-5.625-10.833-5.625-4.427 0-8.0729 1.8229-10.833 5.5209-2.2396 2.9167-3.5937 6.4583-4.0104 10.573zm12.969 3.4896c0 2.448-0.156 4.4792-0.469 6.1459h-40.833c0.156 6.0417 2.1354 10.677 5.8854 13.854 3.4374 2.8125 7.9166 4.2709 13.333 4.2709 6.0937 0 11.562-0.989 16.51-2.9166l2.1355 9.479c-5.7812 2.5-12.604 3.8022-20.469 3.8022-9.4791 0-16.927-2.8126-22.292-8.3855-5.4167-5.5729-8.1251-13.073-8.1251-22.448 0-9.2188 2.5521-16.875 7.5521-23.021 5.2604-6.5104 12.396-9.7917 21.406-9.7917 8.802 0 15.469 3.2813 20 9.7917 3.5937 5.2083 5.3645 11.615 5.3645 19.219"/>
  <path d="m574.43 278.65c-1.3541-0.156-2.8125-0.26-4.3229-0.26-4.7916 0-8.4896 1.771-11.094 5.3647-2.2916 3.1771-3.4374 7.1875-3.4374 12.031v32.031h-13.49v-41.875c0-7.0312-0.107-13.438-0.312-19.219h11.771l0.521 11.719h0.364c1.4063-4.0104 3.6979-7.2396 6.7708-9.6355 3.0209-2.1875 6.3021-3.2812 9.8437-3.2812 1.2494 0 2.3439 0.107 3.3855 0.26z"/>
  <path d="m640.88 266.72-23.125 61.094h-13.229l-22.396-61.094h14.583l10.469 32.292c1.7708 5.3645 3.2292 10.521 4.3751 15.469h0.416c0.989-4.4272 2.4478-9.5834 4.3749-15.469l10.312-32.292z"/>
  <path d="m664.06 327.81h-13.49v-61.094h13.49zm1.5104-79.375c0 2.4479-0.781 4.3751-2.3438 5.8855-1.6146 1.5104-3.6458 2.2916-6.1458 2.2916-2.2918 0-4.1667-0.781-5.7292-2.3437-1.5104-1.5626-2.2916-3.4896-2.2916-5.8334 0-2.3437 0.781-4.2708 2.3437-5.7812 1.6145-1.5104 3.5937-2.2396 5.9375-2.2396 2.2916 0 4.2708 0.729 5.8854 2.2396 1.5624 1.5104 2.3438 3.4375 2.3438 5.7812"/>
  <path d="m723.28 268.39-2.6041 10.26c-3.4375-1.6666-7.3959-2.5-11.823-2.5-5.9375 0-10.677 2.0312-14.115 5.9895-3.4896 3.9584-5.2084 9.0105-5.2084 15.104 0 6.4582 1.823 11.562 5.4688 15.312 3.6459 3.75 8.2292 5.625 13.854 5.625 4.1666 0 8.2812-0.781 12.292-2.4478l1.9271 10.156c-4.4792 2.0833-10.052 3.1251-16.875 3.1251-9.2708 0-16.719-2.8646-22.24-8.4896-5.5208-5.625-8.2812-13.177-8.2812-22.604 0-9.4792 2.9688-17.24 8.9063-23.281 5.9374-6.0937 13.958-9.1145 24.01-9.1145 5.677 0 10.625 0.989 14.687 2.8645"/>
  <path d="m771.3 290.89c0.107-4.0624-0.781-7.552-2.6561-10.469-2.3439-3.75-5.9376-5.625-10.833-5.625-4.4272 0-8.073 1.8229-10.833 5.5209-2.2396 2.9167-3.5938 6.4583-4.0105 10.573zm13.021 3.4896c0 2.448-0.208 4.4792-0.521 6.1459h-40.833c0.156 6.0417 2.1355 10.677 5.8855 13.854 3.4374 2.8125 7.9166 4.2709 13.385 4.2709 6.0416 0 11.51-0.989 16.458-2.9166l2.1355 9.479c-5.7814 2.5-12.604 3.8022-20.469 3.8022-9.4792 0-16.875-2.8126-22.292-8.3855-5.4167-5.5729-8.1251-13.073-8.1251-22.448 0-9.2188 2.5521-16.875 7.5521-23.021 5.3126-6.5104 12.448-9.7917 21.406-9.7917 8.802 0 15.469 3.2813 20 9.7917 3.5937 5.2083 5.4167 11.615 5.4167 19.219"/>
  <path d="m867.71 268.39c0-4.9479-1.6145-8.75-4.7916-11.406-3.1771-2.6043-7.6041-3.9584-13.281-3.9584-3.802 0-6.8228 0.26-9.1667 0.781v30.365c1.9272 0.521 4.5313 0.781 7.9167 0.781 5.9896 0 10.729-1.4583 14.167-4.3749 3.4376-2.9688 5.1563-7.0314 5.1563-12.188m13.438-0.729c0 7.8124-2.2917 14.062-6.9272 18.75-5.9375 6.0938-14.583 9.1667-25.99 9.1667-3.3333 0-5.9376-0.156-7.7605-0.521v32.76h-13.49v-83.646c6.4583-1.1453 13.802-1.7708 22.083-1.7708 10.729 0 18.802 2.2916 24.271 6.9271 5.2082 4.5312 7.8125 10.625 7.8125 18.333"/>
  <path d="m925.42 278.65c-1.3541-0.156-2.8125-0.26-4.3229-0.26-4.7918 0-8.4896 1.771-11.094 5.3647-2.2917 3.1771-3.4374 7.1875-3.4374 12.031v32.031h-13.49v-41.875c0-7.0312-0.107-13.438-0.364-19.219h11.823l0.521 11.719h0.364c1.4063-4.0104 3.6979-7.2396 6.7708-9.6355 3.0208-2.1875 6.3022-3.2812 9.7918-3.2812 1.3026 0 2.3957 0.107 3.4374 0.26z"/>
  <path d="m976.25 297.14c0-5.5728-1.1973-10.364-3.6458-14.375-2.8126-4.8438-6.875-7.2918-12.188-7.2918-5.4167 0-9.5833 2.448-12.448 7.2918-2.3957 4.0104-3.6457 8.8541-3.6457 14.635 0 5.5728 1.2493 10.365 3.6457 14.375 2.9688 4.8437 7.0833 7.2396 12.344 7.2396 5.1561 0 9.2708-2.4479 12.187-7.3438 2.5-4.1146 3.75-8.9584 3.75-14.531m14.063-0.364c0 9.3751-2.6563 17.083-8.021 23.125-5.6249 6.1457-13.073 9.2708-22.344 9.2708-9.0104 0-16.146-2.9688-21.458-8.9063-5.3125-5.9375-7.9688-13.438-7.9688-22.448 0-9.4792 2.7604-17.24 8.2292-23.229 5.4687-6.0417 12.865-9.0625 22.188-9.0625 8.9584 0 16.146 2.9688 21.614 8.9063 5.2084 5.7812 7.7606 13.229 7.7606 22.344"/>
  <path d="m1051.6 266.72-23.125 61.094h-13.229l-22.396-61.094h14.583l10.469 32.292c1.7708 5.3645 3.2292 10.521 4.375 15.469h0.416c0.989-4.4272 2.4479-9.5834 4.375-15.469l10.312-32.292z"/>
  <path d="m1074.7 327.81h-13.49v-61.094h13.49zm1.5104-79.375c0 2.4479-0.781 4.3751-2.3437 5.8855-1.6147 1.5104-3.6459 2.2916-6.1459 2.2916-2.2396 0-4.1666-0.781-5.7292-2.3437-1.5104-1.5626-2.2916-3.4896-2.2916-5.8334 0-2.3437 0.781-4.2708 2.3958-5.7812 1.5625-1.5104 3.5417-2.2396 5.8333-2.2396 2.3439 0 4.3229 0.729 5.9376 2.2396 1.5624 1.5104 2.3437 3.4375 2.3437 5.7812"/>
  <path d="m1130.7 302.03v-10.104c0-1.7708-0.107-3.177-0.364-4.2708-0.781-3.2292-2.3958-5.9376-4.8958-8.177-2.5-2.1876-5.5728-3.3334-9.0624-3.3334-5.0522 0-9.0104 2.0312-11.875 6.0416-2.9167 4.0104-4.3229 9.1146-4.3229 15.365 0 5.9896 1.3542 10.885 4.1146 14.635 2.9687 4.0104 6.875 5.9896 11.823 5.9896 4.427 0 8.0208-1.6666 10.677-5 2.6042-3.0729 3.9063-6.7708 3.9063-11.146m14.114 25.781h-12.083l-0.625-9.7917h-0.364c-3.8542 7.3958-10.417 11.146-19.636 11.146-7.3437 0-13.49-2.9166-18.333-8.6458-4.8438-5.7812-7.2916-13.281-7.2916-22.5 0-9.8438 2.6562-17.865 7.9688-23.958 5.1561-5.6772 11.458-8.5417 18.958-8.5417 8.2292 0 14.01 2.7604 17.292 8.2292v-35.052h13.489v72.656c0 5.9375 0.208 11.458 0.625 16.458"/>
  <path d="m1197.1 290.89c0.05-4.0624-0.833-7.552-2.6563-10.469-2.3437-3.75-5.9896-5.625-10.833-5.625-4.4792 0-8.073 1.8229-10.833 5.5209-2.2917 2.9167-3.6458 6.4583-4.0625 10.573zm12.969 3.4896c0 2.448-0.156 4.4792-0.521 6.1459h-40.833c0.156 6.0417 2.1354 10.677 5.9374 13.854 3.4376 2.8125 7.8647 4.2709 13.333 4.2709 6.0417 0 11.562-0.989 16.51-2.9166l2.1353 9.479c-5.7812 2.5-12.604 3.8022-20.469 3.8022-9.4792 0-16.927-2.8126-22.344-8.3855-5.3645-5.5729-8.0728-13.073-8.0728-22.448 0-9.2188 2.5-16.875 7.552-23.021 5.2604-6.5104 12.396-9.7917 21.354-9.7917 8.8022 0 15.469 3.2813 20 9.7917 3.5939 5.2083 5.4167 11.615 5.4167 19.219"/>
  <g transform="matrix(13.333 0 0 13.333 -1071.8 -8746.4)" clip-path="url(#clip17)">
   <path d="m174.46 676.88c-0.0977-0.0117-0.20703-0.0195-0.32031-0.0195-0.35937 0-0.64062 0.13282-0.83594 0.40235-0.16797 0.23828-0.2539 0.53906-0.2539 0.90234v2.4024h-1.0117v-3.1406c0-0.52734-0.0117-1.0078-0.0273-1.4414h0.88672l0.0352 0.87891h0.0312c0.10547-0.30078 0.27734-0.54297 0.50781-0.72266 0.22656-0.16406 0.47266-0.24609 0.73438-0.24609 0.0937 0 0.17968 8e-3 0.2539 0.0195z"/>
  </g>
 </g>
</svg>
