<?xml version="1.0" encoding="UTF-8"?><svg id="Warstwa_2" xmlns="http://www.w3.org/2000/svg" width="200" height="60" viewBox="0 0 564.3 170.2"><defs><style>.cls-1{fill:#fff;}.cls-2{fill:#76b900;}.cls-3{fill:#1e1e1e;}</style></defs><g id="Badges"><g id="GeForce_RTX_Studio"><path class="cls-2" d="m201.1,0v170.2H0V0h201.1Zm345.4,0v170.2h17.8V0h-17.8Z"/><rect class="cls-3" x="201.1" width="345.4" height="170.2"/><path id="NVIDIA_Logo" class="cls-3" d="m89.1,112.4v25.6h7.2v-25.6h-7.2Zm-56.9,0v25.6h7.3v-19.5h5.6c1.9,0,3.2.5,4.1,1.4,1.1,1.2,1.6,3.2,1.6,6.8v11.2h7.1v-14.2c0-10.1-6.4-11.5-12.7-11.5l-13,.2m68.5,0v25.6h11.7c6.2,0,8.3-1,10.5-3.4,1.6-1.6,2.6-5.2,2.6-9.1,0-3.6-.9-6.8-2.3-8.8-2.7-3.6-6.5-4.3-12.3-4.3h-10.2Zm7.2,5.6h3.1c4.5,0,7.4,2,7.4,7.3s-2.9,7.3-7.4,7.3h-3.1v-14.6h0Zm-29.3-5.6l-6,20.3-5.8-20.3h-7.8l8.3,25.6h10.4l8.3-25.6s-7.4,0-7.4,0Zm50.2,25.6h7.2v-25.6h-7.2v25.6Zm20.3-25.6l-10.1,25.6h7.1l1.6-4.5h11.9l1.5,4.5h7.7l-10.2-25.6h-9.5Zm4.7,4.7l4.4,12h-8.9l4.5-12h0ZM79.5,52.5v-6.1c.6,0,1.2-.1,1.8-.1,16.8-.5,27.8,14.4,27.8,14.4,0,0-11.9,16.5-24.6,16.5-1.8,0-3.5-.3-5-.8v-18.6c6.5.8,7.9,3.7,11.8,10.2l8.7-7.4s-6.4-8.4-17.2-8.4c-1.1.1-2.2.2-3.3.3m0-20.3v9.2c.6,0,1.2-.1,1.8-.1,23.4-.8,38.6,19.2,38.6,19.2,0,0-17.5,21.3-35.7,21.3-1.7,0-3.2-.2-4.7-.4v5.7c1.3.2,2.6.3,3.9.3,17,0,29.2-8.7,41.1-18.9,2,1.6,10,5.4,11.7,7.1-11.3,9.5-37.6,17.1-52.5,17.1-1.4,0-2.8-.1-4.2-.2v8h64.5V32.5l-64.5-.3h0Zm0,44.2v4.8c-15.7-2.8-20-19.1-20-19.1,0,0,7.5-8.3,20-9.7v5.3h0c-6.6-.8-11.7,5.3-11.7,5.3,0,0,2.9,10.5,11.7,13.4m-27.9-14.9s9.3-13.7,27.9-15.1v-5c-20.6,1.6-38.4,19.1-38.4,19.1,0,0,10.1,29.1,38.4,31.8v-5.3c-20.8-2.6-27.9-25.5-27.9-25.5Z"/><polygon class="cls-1" points="325.9 77.6 325.9 60.3 341.1 60.3 342.2 52.4 325.9 52.4 325.9 41 346.2 41 346.2 33.1 316.6 33.1 316.6 77.6 325.9 77.6"/><path class="cls-1" d="m252.5,78.5h.5c3.4,0,6.6-.4,9.6-1.3s5.5-2.2,7.7-3.9v-20.5h-17.4l-1.1,7.8h9.5v8.2c-1.1.5-2.4.9-3.9,1.1-1.5.3-3.1.4-4.7.4h-.4c-4.1,0-7.1-1.1-9-3.2-1.7-2.1-2.7-5.5-2.7-10.1v-2.9c0-4.5,1-7.9,2.9-10.3,1.9-2.4,4.7-3.5,8.4-3.5h.4c4.7,0,7.6,1.8,8.8,5.5l8.5-3c-1.3-3.4-3.4-6.1-6.4-7.9-3-1.8-6.6-2.8-10.9-2.8h-.6c-4.3,0-8,.9-11,2.6-3.1,1.8-5.4,4.3-7,7.6s-2.5,7.2-2.5,11.9v2.5c.1,14.6,7.2,21.8,21.3,21.8Z"/><polygon class="cls-1" points="514.3 77.6 514.3 69.8 493.6 69.8 493.6 59.1 509 59.1 510.1 51.2 493.6 51.2 493.6 41 513.9 41 513.9 33.1 484.3 33.1 484.3 77.6 514.3 77.6"/><path class="cls-1" d="m408.4,77.6v-15.9h6.9l8.8,15.9h10.1l-9.7-17.3c2.6-1.1,4.7-2.6,6.1-4.7,1.5-2.1,2.2-4.6,2.2-7.6v-1.2c0-4.3-1.5-7.6-4.6-10.1-3-2.4-7.1-3.6-12.3-3.6h-16.9v44.6h9.4v-.1Zm7.3-36.5c2.2,0,4.1.4,5.6,1.3,1.5.9,2.2,2.3,2.2,4.2v1.6c0,2-.7,3.4-2.2,4.3-1.5.8-3.4,1.3-5.6,1.3h-7.3v-12.6h7.3v-.1Z"/><path class="cls-1" d="m264.8,116c1.5-2.1,2.2-4.6,2.2-7.6v-1.2c0-4.3-1.5-7.6-4.6-10.1-3-2.4-7.1-3.6-12.3-3.6h-16.9v44.6h9.3v-15.9h6.9l8.8,15.9h10.1l-9.7-17.3c2.7-1.2,4.8-2.7,6.2-4.8Zm-7.1-7.5c0,2-.7,3.4-2.2,4.3-1.5.8-3.4,1.3-5.6,1.3h-7.3v-12.6h7.3c2.2,0,4.1.4,5.6,1.3s2.2,2.3,2.2,4.2v1.5Z"/><path class="cls-1" d="m459.2,78.5h.5c4.5,0,8.3-1,11.4-2.9,3.1-2,5.2-4.7,6.5-8.2l-8.5-3.3c-.7,2.2-1.8,3.8-3.5,4.8s-3.6,1.5-5.9,1.5h-.4c-3.6,0-6.4-1.1-8.2-3.3-1.9-2.2-2.8-5.6-2.8-10.3v-2.9c0-4.5,1-7.9,2.9-10.2,2-2.2,4.7-3.4,8.1-3.4h.4c2.2,0,4.2.5,5.8,1.5,1.6,1,2.7,2.6,3.3,4.8l8.7-3.1c-1.2-3.6-3.4-6.5-6.4-8.5s-6.8-3-11.3-3h-.5c-4.3,0-8,.9-11,2.7s-5.3,4.3-6.9,7.6-2.4,7.2-2.4,11.7v2.6c0,6.9,1.7,12.3,5.2,16.2,3.4,3.8,8.4,5.7,15,5.7Z"/><polygon class="cls-1" points="350.7 93.4 339.9 93.4 330.3 108.1 320.7 93.4 309.7 93.4 324.5 115.4 309.2 138 319.9 138 330.1 122.5 340.2 138 351.2 138 335.9 115.4 350.7 93.4"/><path class="cls-1" d="m389.6,68.3c1.6-3.3,2.5-7.2,2.5-11.6v-2.5c0-4.5-.8-8.4-2.5-11.7-1.6-3.3-4-5.8-7.1-7.6s-6.8-2.7-11.1-2.7h-.6c-4.3,0-8,.9-11.1,2.7s-5.4,4.3-7.1,7.6c-1.6,3.3-2.5,7.2-2.5,11.7v2.4c0,4.5.8,8.4,2.5,11.6,1.6,3.3,4,5.8,7.1,7.6,3.1,1.8,6.8,2.7,11.1,2.7h.6c4.3,0,8-.9,11.1-2.7,3.1-1.7,5.5-4.2,7.1-7.5Zm-18.2,2.1h-.5c-3.5,0-6.2-1.1-8.3-3.4-2.1-2.2-3.1-5.6-3.1-10.2v-2.9c0-4.5,1-7.9,3.1-10.2,2.1-2.2,4.8-3.4,8.3-3.4h.5c3.5,0,6.2,1.1,8.3,3.4,2.1,2.3,3.1,5.6,3.1,10.2v2.9c0,4.5-1,7.9-3.1,10.2-2.1,2.3-4.8,3.4-8.3,3.4Z"/><polygon class="cls-1" points="287.7 59.1 303.1 59.1 304.2 51.2 287.7 51.2 287.7 41 308 41 308 33.1 278.4 33.1 278.4 77.6 308.4 77.6 308.4 69.8 287.7 69.8 287.7 59.1"/><polygon class="cls-1" points="270.2 101.5 283.6 101.5 283.6 138 292.9 138 292.9 101.5 306.3 101.5 306.3 93.4 270.2 93.4 270.2 101.5"/></g></g></svg>