<?xml version="1.0" encoding="utf-8"?>
<!-- Generator: Adobe Illustrator 27.0.0, SVG Export Plug-In . SVG Version: 6.00 Build 0)  -->
<svg version="1.1" width="300" height="46" 
	 id="svg2" xmlns:inkscape="http://www.inkscape.org/namespaces/inkscape" xmlns:sodipodi="http://sodipodi.sourceforge.net/DTD/sodipodi-0.dtd" xmlns:rdf="http://www.w3.org/1999/02/22-rdf-syntax-ns#" xmlns:svg="http://www.w3.org/2000/svg" xmlns:cc="http://creativecommons.org/ns#" xmlns:dc="http://purl.org/dc/elements/1.1/" inkscape:version="0.91 r13725" sodipodi:docname="strefa_samsung.svg"
	 xmlns="http://www.w3.org/2000/svg" xmlns:xlink="http://www.w3.org/1999/xlink" x="0px" y="0px" viewBox="0 0 80 12.2"
	 style="enable-background:new 0 0 80 12.2;" xml:space="preserve">
<sodipodi:namedview  bordercolor="#666666" borderopacity="1" fit-margin-bottom="0" fit-margin-left="0" fit-margin-right="0" fit-margin-top="0" gridtolerance="10" guidetolerance="10" id="namedview40" inkscape:current-layer="svg2" inkscape:cx="-155.951" inkscape:cy="8.2247856" inkscape:pageopacity="0" inkscape:pageshadow="2" inkscape:window-height="1377" inkscape:window-maximized="1" inkscape:window-width="2560" inkscape:window-x="-8" inkscape:window-y="-8" inkscape:zoom="2.95" objecttolerance="10" pagecolor="#ffffff" showgrid="false">
	</sodipodi:namedview>
<path d="M3,3.3C3,3.1,3,2.8,3,2.7c0.1-0.4,0.3-0.8,1-0.8c0.7,0,1.1,0.4,1.1,1c0,0.2,0,0.7,0,0.7H8V2.9C8,0.4,5.7,0,4.1,0
	c-2,0-3.7,0.7-4,2.5C0.1,3,0,3.5,0.2,4.1c0.5,2.3,4.6,3,5.2,4.5c0.1,0.3,0.1,0.6,0,0.8C5.2,9.8,5,10.2,4.2,10.2
	c-0.7,0-1.1-0.4-1.1-1l0-1.1H0v0.9c0,2.6,2,3.3,4.2,3.3c2.1,0,3.8-0.7,4-2.6c0.1-1,0-1.6,0-1.9C7.7,5.4,3.4,4.6,3,3.3z M40.2,3.3
	c-0.1-0.2,0-0.5,0-0.6c0.1-0.4,0.3-0.8,1-0.8c0.7,0,1,0.4,1,1c0,0.2,0,0.7,0,0.7h2.8V2.9c0-2.5-2.2-2.9-3.8-2.9c-2,0-3.7,0.7-4,2.5
	c-0.1,0.5-0.1,1,0,1.5c0.5,2.3,4.5,3,5.1,4.4c0.1,0.3,0.1,0.6,0,0.8c-0.1,0.4-0.3,0.8-1.1,0.8c-0.7,0-1.1-0.4-1.1-1l0-1.1h-3v0.9
	c0,2.5,2,3.3,4.1,3.3c2,0,3.7-0.7,4-2.6c0.1-1,0-1.6,0-1.9C44.8,5.4,40.6,4.7,40.2,3.3z M66.2,9.6l-2.7-9.2h-4.2v11.3h2.8l-0.2-9.5
	l2.9,9.5h4.1V0.4H66L66.2,9.6z M12.2,0.4l-2.1,11.4h3.1l1.6-10.6l1.6,10.6h3.1L17.3,0.4H12.2z M29.5,0.4l-1.4,8.9l-1.4-8.9H22
	l-0.2,11.4h2.9l0.1-10.6l2,10.6h2.9l2-10.6l0.1,10.6h2.9L34.2,0.4H29.5z M56.1,0.4h-2.9v8.5c0,0.1,0,0.3,0,0.4
	c-0.1,0.3-0.3,0.8-1.1,0.8c-0.8,0-1-0.5-1.1-0.8c0-0.1,0-0.3,0-0.4V0.4h-2.9v8.2c0,0.2,0,0.6,0,0.8c0.2,2.1,1.9,2.8,4,2.8
	c2.1,0,3.8-0.7,4-2.8c0-0.1,0-0.5,0-0.8V0.4z M76,5.4V7h1.2v1.7c0,0.1,0,0.3,0,0.4c0,0.3-0.3,0.8-1.2,0.8c-0.8,0-1.1-0.5-1.2-0.8
	c0-0.1,0-0.3,0-0.4V3.5c0-0.2,0-0.4,0.1-0.5c0.1-0.3,0.3-0.8,1.1-0.8c0.9,0,1.1,0.6,1.1,0.8c0,0.2,0,0.4,0,0.4V4H80V3.6
	c0,0,0-0.4,0-0.8c-0.2-2.1-2-2.8-4-2.8c-2,0-3.8,0.7-4,2.8c0,0.2-0.1,0.5-0.1,0.8v4.8c0,0.2,0,0.4,0,0.8c0.2,2.1,2,2.8,4,2.8
	c2,0,3.8-0.7,4-2.8c0-0.4,0-0.5,0-0.8V5.4H76z"/>
</svg>
